<?xml version="1.0" standalone="no"?>
<!DOCTYPE svg PUBLIC "-//W3C//DTD SVG 20010904//EN"
 "http://www.w3.org/TR/2001/REC-SVG-20010904/DTD/svg10.dtd">
<svg version="1.0" xmlns="http://www.w3.org/2000/svg"
 width="810.000000pt" height="810.000000pt" viewBox="0 0 810.000000 810.000000"
 preserveAspectRatio="xMidYMid meet">
<metadata>
Created by potrace 1.11, written by Peter Selinger 2001-2013
</metadata>
<g transform="translate(0.000000,810.000000) scale(0.100000,-0.100000)"
fill="#000000" stroke="none">
<path d="M5278 6195 c-2 -3 -49 -7 -104 -10 -54 -3 -128 -7 -164 -10 -36 -2
-110 -7 -165 -10 -55 -3 -136 -8 -180 -11 -44 -3 -114 -7 -155 -9 -116 -6
-279 -15 -340 -20 -30 -2 -111 -15 -180 -29 -69 -14 -138 -27 -155 -30 -152
-27 -298 -65 -318 -83 -21 -19 -107 -71 -492 -296 -93 -54 -190 -113 -215
-130 -68 -48 -819 -804 -857 -865 -27 -41 -70 -79 -206 -181 -95 -70 -282
-210 -417 -310 -135 -100 -252 -187 -260 -194 -8 -7 -49 -37 -90 -67 -41 -30
-82 -60 -90 -67 -8 -7 -64 -48 -125 -93 -60 -44 -122 -90 -138 -103 -15 -12
-68 -51 -117 -87 -73 -53 -89 -70 -90 -91 0 -31 16 -40 80 -44 25 -2 68 -6 95
-9 28 -3 84 -8 125 -11 41 -3 98 -8 125 -11 28 -3 75 -7 105 -9 30 -2 82 -6
115 -9 33 -3 92 -8 130 -11 39 -3 90 -8 115 -10 25 -2 77 -7 115 -10 39 -3 90
-8 115 -11 25 -3 77 -7 115 -9 39 -3 95 -7 125 -10 30 -3 80 -8 110 -10 30 -2
80 -7 110 -10 30 -3 89 -8 130 -11 41 -3 89 -7 105 -9 17 -1 37 -3 46 -4 9 0
43 -34 75 -73 33 -40 61 -75 64 -78 3 -3 21 -25 40 -50 19 -25 40 -51 48 -58
7 -8 25 -30 40 -50 15 -21 29 -39 33 -42 3 -3 59 -72 125 -155 65 -82 126
-158 134 -168 8 -11 20 -24 25 -31 6 -6 28 -33 50 -61 22 -27 42 -52 45 -55 3
-3 70 -86 150 -185 308 -384 309 -386 331 -372 16 10 21 9 29 -3 9 -13 12 -13
24 3 8 10 34 39 57 66 24 26 69 76 99 111 30 35 60 68 65 74 6 6 37 43 70 81
33 39 62 72 65 75 3 3 37 41 75 85 39 44 75 85 80 91 33 36 121 138 128 148 5
8 9 7 15 -2 6 -8 18 -11 34 -7 13 3 33 8 44 10 10 2 19 4 19 5 0 1 14 3 30 5
17 3 73 14 125 25 52 12 109 24 125 27 28 4 244 49 290 59 11 2 34 7 50 9 17
3 38 8 47 11 21 6 51 12 102 20 22 3 43 7 47 9 3 2 21 7 40 10 19 3 111 22
204 41 94 20 181 38 195 40 14 3 97 20 185 39 88 18 174 36 190 38 17 3 72 15
123 26 123 28 113 28 282 6 14 -2 52 -6 85 -10 33 -3 71 -8 85 -10 25 -4 90
-12 165 -20 22 -2 54 -6 70 -9 17 -3 61 -7 99 -11 38 -3 79 -7 90 -10 12 -2
46 -7 77 -10 31 -3 65 -7 76 -9 10 -2 48 -7 83 -11 36 -3 76 -8 90 -10 14 -2
50 -6 80 -9 30 -3 71 -8 90 -11 50 -7 108 -14 165 -20 28 -3 66 -7 85 -10 19
-2 60 -7 90 -11 30 -3 63 -8 73 -10 10 -2 21 4 24 14 4 9 11 20 16 23 6 4 2
21 -10 40 -11 19 -51 93 -88 164 -98 188 -161 308 -215 410 -52 99 -134 255
-230 440 -34 66 -79 152 -100 190 -21 39 -62 117 -93 175 -71 137 -147 281
-213 408 -30 56 -79 150 -110 210 -97 184 -136 257 -147 270 -5 6 -6 12 -2 12
4 0 3 6 -3 13 -9 11 -47 81 -131 244 -18 34 -38 66 -44 71 -11 9 -215 127
-327 190 -25 14 -79 45 -120 70 -79 47 -116 68 -177 103 -48 27 -458 265 -499
290 -17 10 -33 17 -36 14z m-135 -105 c-4 -4 -65 -46 -135 -94 -250 -169 -384
-260 -474 -323 -51 -34 -94 -63 -97 -63 -3 0 -34 55 -68 123 -34 67 -83 163
-110 214 -27 51 -49 94 -49 96 0 2 26 5 58 6 66 3 119 6 257 15 55 4 132 9
170 11 215 13 287 17 348 20 38 2 71 6 74 9 3 2 12 2 20 -1 8 -3 11 -9 6 -13z
m248 -49 c46 -26 108 -62 137 -80 29 -17 54 -31 56 -31 2 0 44 -24 93 -54 49
-29 109 -65 135 -79 25 -14 139 -80 252 -146 114 -67 211 -121 217 -121 5 0 9
-4 9 -10 0 -5 7 -10 15 -10 8 0 15 -5 15 -11 0 -5 -4 -8 -9 -4 -5 3 -119 8
-253 10 -134 3 -315 7 -403 10 -88 2 -263 7 -390 10 -126 3 -311 8 -410 11
-99 3 -217 6 -263 6 -46 1 -84 4 -86 7 -2 3 30 29 72 58 259 175 502 340 597
406 61 42 115 76 121 77 6 0 49 -22 95 -49z m-1155 -226 c62 -121 114 -223
114 -226 0 -8 -691 338 -705 353 -7 7 -7 9 1 5 6 -3 35 0 65 8 30 7 68 16 84
18 17 3 73 15 125 26 52 12 111 24 130 27 19 3 37 8 40 10 17 17 45 -27 146
-221z m-371 -80 c181 -91 330 -167 333 -169 2 -3 -92 -5 -209 -6 -814 -5
-1018 -5 -1011 2 7 7 336 204 392 234 23 13 164 101 165 103 1 1 149 -73 330
-164z m353 -352 c-53 -54 -211 -214 -351 -356 l-255 -258 -346 345 c-190 190
-346 349 -346 353 0 5 314 9 697 11 l698 2 -97 -97z m997 62 c127 -3 300 -8
385 -10 85 -2 268 -7 405 -10 345 -9 405 -11 409 -16 1 -2 10 -17 18 -34 22
-45 146 -283 178 -340 15 -27 62 -117 105 -200 43 -82 96 -184 118 -225 22
-41 59 -111 82 -155 86 -162 185 -355 185 -361 0 -3 -15 3 -32 14 -18 11 -53
31 -78 44 -46 25 -69 38 -255 143 -60 34 -132 74 -160 90 -91 51 -200 111
-235 132 -19 11 -96 54 -170 95 -74 42 -159 90 -188 107 -29 17 -55 31 -57 31
-2 0 -36 19 -77 43 -40 24 -104 61 -143 82 -79 43 -511 285 -625 350 -41 24
-149 85 -240 135 -91 51 -166 93 -168 95 -3 3 206 -1 543 -10z m-2050 -345
l350 -350 -705 0 -704 0 349 350 c192 193 352 350 355 350 3 0 163 -157 355
-350z m1233 328 c1 -16 10 -91 22 -183 5 -38 12 -92 15 -120 3 -27 8 -61 10
-75 3 -14 7 -47 10 -75 3 -27 7 -66 10 -85 3 -19 8 -57 11 -85 3 -27 8 -58 9
-67 2 -9 7 -48 10 -85 4 -37 8 -75 10 -83 3 -8 7 -41 10 -73 4 -32 8 -67 10
-77 2 -10 6 -43 9 -72 4 -29 9 -71 12 -93 3 -22 7 -56 9 -75 2 -19 7 -53 10
-75 3 -22 7 -58 10 -80 8 -75 16 -140 20 -165 2 -14 7 -47 10 -75 3 -27 7 -61
10 -75 2 -14 7 -52 10 -84 3 -32 6 -62 7 -65 3 -25 -12 -12 -83 75 -44 55 -90
110 -102 124 -12 14 -78 95 -148 180 -222 271 -389 474 -429 521 -85 100 -200
244 -200 250 0 3 21 26 48 51 26 25 188 188 360 362 173 174 315 316 316 316
2 0 3 -6 4 -12z m277 -68 c100 -56 132 -75 177 -101 27 -16 51 -29 53 -29 2 0
58 -31 125 -70 67 -38 123 -70 124 -70 2 0 43 -23 92 -51 49 -29 114 -65 144
-82 30 -16 84 -47 120 -67 36 -21 81 -47 100 -57 19 -11 98 -55 175 -98 77
-43 151 -85 165 -92 24 -14 68 -39 140 -80 19 -11 103 -57 185 -103 83 -46
152 -87 153 -92 2 -4 10 -8 19 -8 8 0 27 -8 41 -18 15 -11 52 -32 82 -49 50
-27 341 -190 435 -244 54 -30 83 -46 130 -72 22 -12 41 -29 42 -37 2 -8 -14
-33 -34 -56 -21 -22 -63 -69 -93 -104 -30 -35 -62 -71 -70 -80 -27 -31 -125
-142 -143 -164 -68 -79 -113 -131 -123 -140 -23 -24 -202 -230 -221 -255 -11
-14 -15 -13 -37 15 -14 17 -37 44 -53 61 -15 17 -41 48 -58 68 -16 21 -45 54
-62 74 -18 20 -35 44 -39 54 -3 9 -9 17 -13 17 -4 0 -32 30 -62 67 -30 37 -61
75 -69 84 -35 40 -60 69 -130 154 -41 50 -77 92 -80 95 -3 3 -15 17 -26 32
-12 15 -41 51 -66 80 -25 29 -263 314 -529 633 -265 319 -491 589 -500 600
-10 11 -42 49 -71 85 -29 36 -61 74 -71 85 -10 11 -28 33 -40 50 l-22 29 35
-21 c19 -11 53 -31 75 -43z m-138 -33 c17 -23 40 -51 50 -62 10 -11 130 -155
268 -320 137 -165 257 -309 267 -320 9 -11 58 -69 108 -130 50 -60 99 -119
108 -130 14 -16 101 -121 200 -240 10 -11 37 -45 62 -75 25 -30 48 -57 51 -60
3 -3 33 -37 65 -76 32 -39 70 -85 84 -101 14 -17 42 -50 62 -74 20 -24 123
-147 228 -274 105 -126 210 -252 233 -279 81 -96 81 -95 55 -91 -13 2 -43 6
-68 9 -133 15 -156 19 -170 31 -8 7 -43 16 -78 19 -34 4 -73 11 -86 16 -13 5
-26 6 -29 3 -3 -2 -29 0 -59 6 -29 6 -73 13 -98 16 -25 3 -57 8 -71 10 -14 3
-41 7 -60 9 -80 11 -135 18 -154 22 -11 2 -40 6 -65 9 -25 3 -56 8 -70 10 -25
5 -56 10 -115 19 -16 2 -55 8 -85 11 -30 4 -64 9 -75 11 -10 2 -37 6 -60 9
-22 3 -51 8 -65 10 -14 3 -47 7 -74 11 -52 5 -148 23 -152 27 -2 2 -7 35 -19
132 -13 106 -15 121 -20 155 -7 49 -14 107 -20 165 -4 28 -8 61 -10 75 -2 14
-7 48 -10 76 -3 28 -7 59 -9 70 -2 10 -7 48 -10 84 -4 36 -8 75 -10 85 -2 11
-7 47 -10 80 -4 33 -11 89 -16 125 -5 36 -12 88 -15 115 -3 28 -8 61 -10 75
-2 14 -7 57 -11 95 -3 39 -8 72 -9 75 -2 3 -6 30 -9 60 -4 30 -11 90 -17 134
-6 43 -12 92 -14 110 -1 17 -6 49 -9 71 -6 44 -11 79 -21 170 -4 33 -9 63 -12
67 -2 4 2 5 9 2 7 -2 27 -24 45 -47z m-1787 -661 c0 -6 -49 -143 -60 -171 -5
-11 -27 -74 -50 -140 -23 -66 -48 -136 -55 -155 -30 -78 -105 -288 -105 -295
0 -4 -6 -21 -14 -38 -13 -28 -83 -224 -124 -345 -8 -23 -16 -41 -19 -39 -2 2
-42 139 -88 303 -47 165 -94 329 -106 366 -11 37 -22 80 -25 95 -3 14 -7 30
-10 35 -3 5 -7 20 -10 34 -3 14 -11 44 -18 67 -17 49 -57 195 -61 217 -1 8 4
27 12 43 l14 27 359 0 c198 0 360 -2 360 -4z m866 -23 c10 -16 22 -33 28 -39
18 -18 344 -413 635 -769 36 -44 70 -85 76 -91 5 -6 26 -30 45 -54 55 -69 94
-114 105 -122 5 -4 6 -8 2 -8 -4 0 -92 60 -195 133 -226 162 -835 594 -1022
726 -74 52 -137 98 -140 101 -3 3 -36 27 -75 53 -38 26 -83 58 -100 72 l-30
24 326 1 327 0 18 -27z m-649 -93 c71 -49 139 -98 152 -107 13 -10 123 -89
245 -175 121 -86 226 -162 233 -167 7 -6 16 -11 22 -11 5 0 11 -3 13 -8 2 -4
57 -46 123 -92 66 -47 125 -88 130 -93 6 -4 80 -57 165 -117 85 -60 160 -113
165 -117 6 -5 89 -64 185 -132 96 -68 181 -129 189 -136 12 -11 -176 -14
-1098 -14 -611 0 -1111 1 -1111 2 0 1 14 40 31 87 16 47 32 92 34 100 2 8 36
103 75 210 39 107 77 213 85 235 7 22 32 92 55 155 23 63 57 158 75 210 19 52
46 127 60 165 14 39 27 76 30 83 2 6 7 12 9 12 3 0 63 -40 133 -90z m-1012
-75 c9 -33 19 -67 21 -75 1 -8 28 -103 59 -210 31 -107 58 -202 60 -210 3 -8
9 -31 14 -50 16 -60 80 -284 90 -315 8 -25 17 -55 37 -130 2 -5 5 -19 8 -30 3
-11 8 -31 12 -44 l7 -24 -89 7 c-49 3 -109 8 -134 10 -25 3 -83 8 -130 11 -90
7 -117 9 -220 19 -36 3 -96 8 -135 11 -38 3 -92 8 -120 11 -27 3 -74 7 -105 9
-30 2 -82 7 -115 9 -119 10 -201 17 -240 21 -22 2 -71 6 -110 9 -38 4 -95 9
-125 11 -30 3 -79 8 -109 10 -30 3 -56 6 -58 8 -2 2 15 16 37 31 22 15 48 33
58 41 14 12 275 207 347 259 46 34 371 276 380 284 6 4 37 28 70 52 33 24 65
48 70 52 6 5 92 69 192 143 100 74 185 140 188 146 11 17 21 0 40 -66z m5295
-661 c9 -16 52 -96 95 -179 42 -82 94 -181 115 -220 20 -38 68 -128 105 -200
37 -71 85 -162 106 -202 39 -72 46 -88 31 -79 -4 2 -35 7 -67 11 -33 3 -71 8
-85 10 -14 2 -47 7 -75 10 -75 8 -126 14 -165 19 -19 3 -80 10 -135 16 -55 6
-113 13 -130 15 -16 2 -52 7 -80 10 -27 3 -63 8 -80 10 -16 2 -57 7 -90 10
-33 3 -71 8 -85 11 -26 4 -135 16 -158 17 -8 0 -6 7 6 21 10 12 49 57 88 101
38 44 71 82 74 85 3 3 36 41 75 85 38 44 74 85 80 91 5 6 33 37 60 69 28 33
59 69 70 81 50 56 136 153 171 196 21 26 43 46 49 44 5 -1 16 -16 25 -32z
m-2670 -523 c0 -3 -17 -24 -38 -47 -20 -22 -62 -69 -92 -105 -30 -35 -62 -71
-70 -79 -8 -9 -40 -45 -70 -81 -30 -35 -57 -66 -61 -69 -3 -3 -34 -39 -69 -80
-35 -41 -67 -77 -70 -80 -3 -3 -50 -57 -104 -120 -55 -63 -109 -125 -120 -136
-12 -12 -30 -32 -40 -45 -18 -22 -207 -239 -231 -265 -27 -29 -122 -140 -139
-162 l-19 -24 -26 29 c-14 17 -114 140 -221 273 -107 134 -200 248 -205 254
-6 6 -46 56 -90 111 -44 55 -84 105 -90 112 -5 7 -15 18 -21 25 -5 7 -84 105
-174 218 -91 113 -177 219 -192 235 -16 17 -28 33 -28 36 0 4 488 7 1085 7
597 0 1085 -3 1085 -7z m160 -26 c25 -3 56 -7 70 -9 14 -3 61 -10 105 -16 44
-6 91 -13 105 -15 14 -2 43 -7 65 -9 46 -6 94 -13 185 -28 36 -5 81 -12 100
-14 19 -2 45 -6 58 -9 12 -3 44 -8 70 -10 26 -3 56 -7 67 -10 11 -2 43 -7 70
-10 28 -3 75 -10 105 -16 30 -5 77 -11 103 -15 27 -3 58 -9 70 -14 21 -8 21
-9 -3 -9 -14 -1 -77 -12 -140 -25 -63 -14 -126 -27 -140 -30 -14 -3 -36 -7
-50 -10 -14 -3 -47 -10 -75 -16 -27 -5 -61 -12 -74 -14 -99 -21 -229 -48 -246
-52 -11 -2 -76 -15 -145 -29 -69 -15 -136 -29 -150 -31 -14 -3 -79 -16 -145
-30 -66 -14 -131 -28 -145 -30 -14 -3 -88 -18 -166 -34 -77 -16 -156 -32 -174
-35 -18 -3 -38 -8 -43 -12 -14 -8 9 29 35 57 29 32 147 166 176 200 55 66 155
180 199 228 19 20 31 42 28 49 -3 9 2 12 18 8 12 -2 42 -7 67 -10z m1790 -186
c0 -5 -11 -4 -24 1 -13 5 -27 6 -30 3 -3 -4 -6 -2 -6 3 0 6 5 15 12 22 9 9 16
8 30 -5 10 -9 18 -20 18 -24z"/>
</g>
</svg>
