<?xml version="1.0" encoding="iso-8859-1"?>
<!-- Generator: Adobe Illustrator 19.0.0, SVG Export Plug-In . SVG Version: 6.00 Build 0)  -->
<svg version="1.1" id="Layer_1" xmlns="http://www.w3.org/2000/svg" xmlns:xlink="http://www.w3.org/1999/xlink" x="0px" y="0px"
	 viewBox="0 0 512 512" style="enable-background:new 0 0 512 512;" xml:space="preserve">
<g>
	<g>
		<path d="M378.182,81.455V46.545h-60.601C309.965,19.712,285.242,0,256,0c-29.241,0-53.965,19.712-61.581,46.545h-60.601v34.909H64
			V512h384V81.455H378.182z M168.727,81.455h58.182V64c0-16.041,13.05-29.091,29.091-29.091S285.091,47.959,285.091,64v17.455
			h58.182v34.909H168.727V81.455z M413.091,477.091H98.909V116.364h34.909v34.909h244.364v-34.909h34.909V477.091z"/>
	</g>
</g>
<g>
	<g>
		<path d="M290.91,296.727h-17.456v-34.909h17.456c9.991,0,19.778,1.67,29.092,4.962l11.636-32.912
			c-13.062-4.617-26.764-6.959-40.728-6.959h-17.456v-29.091h-34.909v29.091h-17.453c-28.873,0-52.364,23.49-52.364,52.364
			c0,28.873,23.49,52.364,52.364,52.364h17.453v34.909h-17.453c-9.991,0-19.779-1.67-29.093-4.962l-11.635,32.912
			c13.061,4.617,26.764,6.959,40.728,6.959h17.453v29.091h34.909v-29.091h17.456c28.874,0,52.364-23.49,52.364-52.364
			C343.274,320.218,319.785,296.727,290.91,296.727z M238.545,296.727h-17.453c-9.624,0-17.455-7.83-17.455-17.455
			c0-9.624,7.83-17.455,17.455-17.455h17.453V296.727z M290.91,366.545h-17.456v-34.909h17.456c9.624,0,17.455,7.83,17.455,17.455
			C308.365,358.715,300.535,366.545,290.91,366.545z"/>
	</g>
</g>
<g>
</g>
<g>
</g>
<g>
</g>
<g>
</g>
<g>
</g>
<g>
</g>
<g>
</g>
<g>
</g>
<g>
</g>
<g>
</g>
<g>
</g>
<g>
</g>
<g>
</g>
<g>
</g>
<g>
</g>
</svg>
