<?xml version="1.0" encoding="iso-8859-1"?>
<!-- Generator: Adobe Illustrator 19.0.0, SVG Export Plug-In . SVG Version: 6.00 Build 0)  -->
<svg version="1.1" id="Capa_1" xmlns="http://www.w3.org/2000/svg" xmlns:xlink="http://www.w3.org/1999/xlink" x="0px" y="0px"
	 viewBox="0 0 512 512" style="enable-background:new 0 0 512 512;" xml:space="preserve">
<g>
	<g>
		<path d="M491,143.999h-33v-62c0-5.522-4.478-10-10-10h-56c-5.522,0-10,4.478-10,10v62h-31.999V128c0-5.522-4.478-10-10-10
			c-5.522,0-10,4.478-10,10v15.999h-78.165V118c0-5.522-4.478-10-10-10h-76c-5.522,0-10,4.478-10,10v25.999h-19.449V78
			c0-5.522-4.478-10-10-10h-76c-5.522,0-10,4.478-10,10v65.999H21c-5.522,0-10,4.478-10,10v54c0,2.761,1.119,5.261,2.929,7.071
			L198,399.142V502c0,3.248,1.577,6.293,4.229,8.167c1.711,1.209,3.73,1.833,5.771,1.833c1.123,0,2.253-0.189,3.34-0.574l48-17.012
			c5.205-1.845,7.93-7.561,6.085-12.767c-1.847-5.205-7.563-7.931-12.767-6.085L218,487.847v-92.848
			c0-2.652-1.054-5.195-2.929-7.071L45.143,217.999h421.715l-53.929,53.929c-3.905,3.905-3.905,10.237,0,14.143
			c3.906,3.904,10.236,3.904,14.143,0l71-71c1.809-1.811,2.928-4.311,2.928-7.072v-54C501,148.477,496.522,143.999,491,143.999z
			 M402,91.999h36v52h-36V91.999z M175.836,128h56v15.999h-56V128z M60.387,88h56v55.999h-56V88z M481,197.999H31v-34h450V197.999z"
			/>
	</g>
</g>
<g>
	<g>
		<path d="M393.069,305.93C391.21,304.07,388.63,303,386,303s-5.21,1.069-7.07,2.93c-1.86,1.861-2.93,4.44-2.93,7.07
			s1.069,5.21,2.93,7.069c1.86,1.86,4.44,2.931,7.07,2.931s5.21-1.07,7.069-2.931C394.93,318.21,396,315.63,396,313
			S394.93,307.79,393.069,305.93z"/>
	</g>
</g>
<g>
	<g>
		<path d="M346,417.618c-6.617,0-12-4.471-12-9.967c0-5.495,5.383-9.965,12-9.965s12,4.471,12,9.966c0,5.522,4.478,10,10,10
			c5.522,0,10-4.478,10-10c0-13.257-9.244-24.523-22.01-28.462c-0.103-5.433-4.532-9.809-9.99-9.809
			c-5.458,0-9.888,4.376-9.99,9.809c-12.766,3.939-22.01,15.206-22.01,28.462c0,16.523,14.355,29.967,32,29.967
			c6.617,0,12,4.471,12,9.966s-5.383,9.966-12,9.966s-12-4.471-12-9.966c0-5.522-4.478-10-10-10c-5.522,0-10,4.478-10,10
			c0,13.261,9.25,24.53,22.022,28.466c0.227,5.321,4.601,9.57,9.978,9.57c5.377,0,9.751-4.249,9.978-9.57
			C368.75,472.114,378,460.845,378,447.584C378,431.061,363.645,417.618,346,417.618z"/>
	</g>
</g>
<g>
	<g>
		<path d="M346,344c-46.317,0-84,37.683-84,84s37.683,84,84,84s84-37.683,84-84S392.317,344,346,344z M346,492
			c-35.29,0-64-28.71-64-64c0-35.29,28.71-64,64-64c35.29,0,64,28.71,64,64C410,463.29,381.29,492,346,492z"/>
	</g>
</g>
<g>
	<g>
		<path d="M234.819,248.93c-1.859-1.86-4.43-2.93-7.069-2.93c-2.63,0-5.21,1.069-7.07,2.93c-1.86,1.861-2.93,4.44-2.93,7.07
			s1.069,5.21,2.93,7.069c1.86,1.86,4.44,2.931,7.07,2.931c2.64,0,5.21-1.07,7.069-2.931c1.87-1.859,2.931-4.439,2.931-7.069
			S236.689,250.79,234.819,248.93z"/>
	</g>
</g>
<g>
	<g>
		<path d="M179.809,248.93c-1.859-1.86-4.439-2.93-7.069-2.93c-2.631,0-5.21,1.069-7.07,2.93c-1.86,1.86-2.93,4.44-2.93,7.07
			s1.069,5.21,2.93,7.069c1.86,1.86,4.439,2.931,7.07,2.931c2.63,0,5.21-1.07,7.069-2.931c1.86-1.859,2.931-4.439,2.931-7.069
			S181.67,250.79,179.809,248.93z"/>
	</g>
</g>
<g>
	<g>
		<path d="M289.84,248.93c-1.87-1.86-4.44-2.93-7.08-2.93c-2.63,0-5.21,1.069-7.07,2.93c-1.859,1.86-2.92,4.44-2.92,7.07
			s1.061,5.21,2.92,7.069c1.87,1.861,4.44,2.931,7.07,2.931c2.64,0,5.21-1.07,7.08-2.931c1.86-1.859,2.93-4.439,2.93-7.069
			S291.701,250.79,289.84,248.93z"/>
	</g>
</g>
<g>
	<g>
		<path d="M234.819,331.93c-1.859-1.861-4.439-2.93-7.069-2.93s-5.21,1.069-7.07,2.93c-1.86,1.861-2.93,4.44-2.93,7.07
			s1.069,5.21,2.93,7.069c1.86,1.86,4.44,2.931,7.07,2.931c2.64,0,5.21-1.07,7.069-2.931c1.87-1.859,2.931-4.439,2.931-7.069
			S236.689,333.79,234.819,331.93z"/>
	</g>
</g>
<g>
	<g>
		<path d="M289.83,331.93c-1.86-1.86-4.431-2.93-7.061-2.93s-5.21,1.069-7.08,2.93c-1.859,1.86-2.92,4.44-2.92,7.07
			s1.061,5.21,2.92,7.069c1.87,1.86,4.44,2.931,7.08,2.931c2.63,0,5.21-1.07,7.061-2.931c1.87-1.859,2.939-4.439,2.939-7.069
			S291.7,333.79,289.83,331.93z"/>
	</g>
</g>
<g>
	<g>
		<path d="M263.069,290.43c-1.859-1.86-4.439-2.93-7.069-2.93s-5.21,1.069-7.07,2.93c-1.86,1.861-2.93,4.44-2.93,7.07
			s1.069,5.21,2.93,7.069c1.86,1.86,4.44,2.931,7.07,2.931s5.21-1.07,7.069-2.931c1.86-1.859,2.931-4.439,2.931-7.069
			S264.93,292.29,263.069,290.43z"/>
	</g>
</g>
<g>
	<g>
		<path d="M213.819,290.43c-1.859-1.86-4.43-2.93-7.069-2.93c-2.63,0-5.2,1.069-7.07,2.93c-1.86,1.86-2.93,4.44-2.93,7.07
			s1.069,5.21,2.93,7.069c1.87,1.86,4.44,2.931,7.07,2.931c2.64,0,5.21-1.07,7.069-2.931c1.87-1.859,2.931-4.439,2.931-7.069
			S215.689,292.29,213.819,290.43z"/>
	</g>
</g>
<g>
	<g>
		<path d="M312.31,290.43c-1.859-1.86-4.43-2.93-7.06-2.93c-2.641,0-5.21,1.069-7.07,2.93c-1.87,1.86-2.93,4.44-2.93,7.07
			s1.06,5.21,2.93,7.069c1.86,1.86,4.43,2.931,7.07,2.931c2.63,0,5.2-1.07,7.06-2.931c1.87-1.859,2.931-4.439,2.931-7.069
			S314.18,292.29,312.31,290.43z"/>
	</g>
</g>
<g>
	<g>
		<path d="M346.33,248.93c-1.86-1.86-4.44-2.93-7.07-2.93s-5.21,1.069-7.07,2.93c-1.859,1.86-2.93,4.44-2.93,7.07
			s1.07,5.21,2.93,7.069c1.86,1.86,4.44,2.931,7.07,2.931s5.21-1.07,7.07-2.931c1.859-1.859,2.93-4.439,2.93-7.069
			S348.19,250.79,346.33,248.93z"/>
	</g>
</g>
<g>
	<g>
		<path d="M340.001,0h-76c-5.522,0-10,4.478-10,10v76c0,5.522,4.478,10,10,10h76c5.522,0,10-4.478,10-10V10
			C350.001,4.478,345.523,0,340.001,0z M330.001,76h-56V20h56V76z"/>
	</g>
</g>
<g>
	<g>
		<path d="M165.836,0c-5.522,0-10,4.478-10,10v31.667c0,5.522,4.477,10,10,10c5.522,0,10-4.478,10-10V10
			C175.836,4.478,171.358,0,165.836,0z"/>
	</g>
</g>
<g>
	<g>
		<path d="M172.91,70.76c-1.86-1.861-4.44-2.93-7.07-2.93c-2.64,0-5.21,1.069-7.07,2.93c-1.87,1.86-2.93,4.44-2.93,7.07
			s1.06,5.21,2.93,7.069c1.86,1.87,4.431,2.931,7.07,2.931c2.63,0,5.2-1.061,7.07-2.931c1.859-1.859,2.93-4.439,2.93-7.069
			S174.77,72.62,172.91,70.76z"/>
	</g>
</g>
<g>
	<g>
		<path d="M88.387,0c-5.522,0-10,4.478-10,10v25c0,5.522,4.477,10,10,10c5.522,0,10-4.478,10-10V10C98.387,4.478,93.909,0,88.387,0z
			"/>
	</g>
</g>
<g>
	<g>
		<path d="M419.98,0c-5.522,0-10,4.478-10,10v25c0,5.522,4.478,10,10,10c5.522,0,10-4.478,10-10V10C429.98,4.478,425.502,0,419.98,0
			z"/>
	</g>
</g>
<g>
	<g>
		<path d="M206,25c-5.522,0-10,4.478-10,10v29c0,5.522,4.478,10,10,10c5.522,0,10-4.478,10-10V35C216,29.478,211.522,25,206,25z"/>
	</g>
</g>
<g>
</g>
<g>
</g>
<g>
</g>
<g>
</g>
<g>
</g>
<g>
</g>
<g>
</g>
<g>
</g>
<g>
</g>
<g>
</g>
<g>
</g>
<g>
</g>
<g>
</g>
<g>
</g>
<g>
</g>
</svg>
