<?xml version="1.0" encoding="iso-8859-1"?>
<!-- Generator: Adobe Illustrator 19.0.0, SVG Export Plug-In . SVG Version: 6.00 Build 0)  -->
<svg version="1.1" id="Capa_1" xmlns="http://www.w3.org/2000/svg" xmlns:xlink="http://www.w3.org/1999/xlink" x="0px" y="0px"
	 viewBox="0 0 512 512" style="enable-background:new 0 0 512 512;" xml:space="preserve">
<g>
	<g>
		<path d="M172.335,0h-24.861c-6.893,0-12.5,5.607-12.5,12.5v24.696c0,6.892,5.608,12.5,12.5,12.5h24.861
			c6.893,0,12.5-5.607,12.5-12.5V12.5C184.835,5.607,179.228,0,172.335,0z M169.835,34.696h-19.861V15h19.861V34.696z"/>
	</g>
</g>
<g>
	<g>
		<path d="M355.678,15.116h-24.862c-6.892,0-12.5,5.607-12.5,12.5v24.695c0,6.893,5.608,12.501,12.5,12.501h24.862
			c6.893,0,12.5-5.607,12.5-12.5V27.616C368.178,20.723,362.571,15.116,355.678,15.116z M353.178,49.811h-19.862V30.116h19.862
			V49.811z"/>
	</g>
</g>
<g>
	<g>
		<path d="M234.372,50.277h-24.861c-6.893,0-12.5,5.607-12.5,12.5v11.917h-12.01c-6.893,0-12.5,5.608-12.5,12.5v24.695
			c0,6.893,5.607,12.5,12.5,12.5h24.862c6.893,0,12.5-5.607,12.5-12.5V99.973h12.009c6.893,0,12.5-5.607,12.5-12.5V62.777
			C246.872,55.884,241.265,50.277,234.372,50.277z M231.872,84.973h-12.009c-6.893,0-12.5,5.607-12.5,12.5v11.917h-19.862V89.694
			h12.01c6.893,0,12.5-5.607,12.5-12.5V65.277h19.861V84.973z"/>
	</g>
</g>
<g>
	<g>
		<path d="M413.181,426.5c4.142,0,7.5-3.358,7.5-7.5v-71.839c0-6.892-5.608-12.5-12.5-12.5H285.739
			c-0.814-0.014-2.669-0.781-3.253-1.342l-7.966-7.937c2.962-2.288,4.881-5.863,4.881-9.887v-32.73
			c0.074-0.329,0.414-0.917,0.663-1.146l75.334-43.329c4.69-2.698,8.095-8.583,8.095-13.994V197c0-6.893-5.607-12.5-12.5-12.5
			h-20.979v-29.637h7.987c4.142,0,7.5-3.358,7.5-7.5c0-4.142-3.358-7.5-7.5-7.5h-10.487c-6.893,0-12.5,5.607-12.5,12.5V184.5
			h-17.943v-60.11h4.931c6.893,0,12.5-5.607,12.5-12.5V87.194c0-6.893-5.607-12.5-12.5-12.5H277.14c-6.893,0-12.5,5.607-12.5,12.5
			v24.695c0,6.893,5.607,12.5,12.5,12.5h4.931v60.11h-33.57v-25.955c0-6.893-5.607-12.5-12.5-12.5h-43.548
			c-0.492-6.446-5.882-11.544-12.452-11.544h-56.854v-24.341h4.931c6.893,0,12.5-5.607,12.5-12.5V72.963
			c0-6.893-5.607-12.5-12.5-12.5h-24.862c-6.893,0-12.5,5.607-12.5,12.5v24.696c0,6.893,5.607,12.5,12.5,12.5h4.931V137
			c0,6.893,5.607,12.5,12.5,12.5h56.854v35H161.01c-6.893,0-12.5,5.607-12.5,12.5l-0.001,27.295c0,5.411,3.405,11.297,8.095,13.994
			l75.334,43.329c0.248,0.228,0.589,0.816,0.663,1.146v32.73c0,4.024,1.919,7.6,4.881,9.887l-7.964,7.935
			c-0.586,0.564-2.441,1.33-3.251,1.344H103.821c-6.893,0-12.5,5.608-12.5,12.5V499.5c0,6.893,5.607,12.5,12.5,12.5h304.36
			c6.893,0,12.5-5.607,12.5-12.5V469c0-4.142-3.358-7.5-7.5-7.5c-4.142,0-7.5,3.358-7.5,7.5v28h-299.36V349.661h119.945
			c4.769,0,10.458-2.35,13.835-5.715l15.9-15.839l15.899,15.839c3.378,3.365,9.067,5.715,13.836,5.715h119.945V419
			C405.681,423.142,409.039,426.5,413.181,426.5z M105.717,95.159V75.463h19.862v19.696H105.717z M279.64,109.389V89.694h19.862
			v19.695H279.64z M192.501,161.045h41V184.5h-41V161.045z M264.4,282.66v30.333h-16.799V282.66c0-5.411-3.404-11.296-8.095-13.994
			l-24.734-14.225h27.229c4.142,0,7.5-3.358,7.5-7.5c0-4.142-3.358-7.5-7.5-7.5h-50.312c-0.817,0-1.601,0.137-2.337,0.379
			l-25.18-14.483c-0.248-0.228-0.589-0.816-0.663-1.145l0.001-24.692h13.991v15.045c0,4.142,3.358,7.5,7.5,7.5
			c4.142,0,7.5-3.358,7.5-7.5V199.5h41v15.045c0,4.142,3.358,7.5,7.5,7.5c4.142,0,7.5-3.358,7.5-7.5V199.5h33.57v15.045
			c0,4.142,3.358,7.5,7.5,7.5c4.142,0,7.5-3.358,7.5-7.5V199.5h17.943V215c0,4.142,3.358,7.5,7.5,7.5c4.142,0,7.5-3.358,7.5-7.5
			v-15.5h18.479v24.692c-0.074,0.329-0.414,0.917-0.663,1.145l-24.558,14.124c-0.092-0.003-0.179-0.021-0.272-0.021h-35
			c-4.142,0-7.5,3.358-7.5,7.5c0,4.142,3.358,7.5,7.5,7.5h9.229l-24.734,14.226C267.805,271.364,264.4,277.249,264.4,282.66z"/>
	</g>
</g>
<g>
	<g>
		<path d="M173.872,373.372h-39.135c-4.142,0-7.5,3.358-7.5,7.5c0,4.142,3.358,7.5,7.5,7.5h39.135c4.142,0,7.5-3.358,7.5-7.5
			C181.372,376.729,178.014,373.372,173.872,373.372z"/>
	</g>
</g>
<g>
	<g>
		<path d="M173.872,402.038h-39.135c-4.142,0-7.5,3.358-7.5,7.5c0,4.142,3.358,7.5,7.5,7.5h39.135c4.142,0,7.5-3.358,7.5-7.5
			C181.372,405.396,178.014,402.038,173.872,402.038z"/>
	</g>
</g>
<g>
	<g>
		<path d="M173.872,430.705h-39.135c-4.142,0-7.5,3.358-7.5,7.5c0,4.142,3.358,7.5,7.5,7.5h39.135c4.142,0,7.5-3.358,7.5-7.5
			C181.372,434.063,178.014,430.705,173.872,430.705z"/>
	</g>
</g>
<g>
	<g>
		<path d="M173.872,459.371h-39.135c-4.142,0-7.5,3.358-7.5,7.5c0,4.142,3.358,7.5,7.5,7.5h39.135c4.142,0,7.5-3.358,7.5-7.5
			C181.372,462.729,178.014,459.371,173.872,459.371z"/>
	</g>
</g>
<g>
	<g>
		<path d="M285.584,373.372H204.97c-4.142,0-7.5,3.358-7.5,7.5c0,4.142,3.358,7.5,7.5,7.5h80.614c4.142,0,7.5-3.358,7.5-7.5
			C293.084,376.73,289.726,373.372,285.584,373.372z"/>
	</g>
</g>
<g>
	<g>
		<path d="M377.266,373.372h-64.699c-4.142,0-7.5,3.358-7.5,7.5c0,4.142,3.358,7.5,7.5,7.5h64.699c4.142,0,7.5-3.358,7.5-7.5
			C384.766,376.729,381.408,373.372,377.266,373.372z"/>
	</g>
</g>
<g>
	<g>
		<path d="M375.47,402.038h-170.5c-4.142,0-7.5,3.358-7.5,7.5c0,4.142,3.358,7.5,7.5,7.5h170.5c4.142,0,7.5-3.358,7.5-7.5
			C382.97,405.396,379.612,402.038,375.47,402.038z"/>
	</g>
</g>
<g>
	<g>
		<path d="M254.625,430.705H204.97c-4.142,0-7.5,3.358-7.5,7.5c0,4.142,3.358,7.5,7.5,7.5h49.655c4.142,0,7.5-3.358,7.5-7.5
			C262.125,434.063,258.767,430.705,254.625,430.705z"/>
	</g>
</g>
<g>
	<g>
		<path d="M330.412,430.705h-49.655c-4.142,0-7.5,3.358-7.5,7.5c0,4.142,3.358,7.5,7.5,7.5h49.655c4.142,0,7.5-3.358,7.5-7.5
			C337.912,434.063,334.554,430.705,330.412,430.705z"/>
	</g>
</g>
<g>
	<g>
		<path d="M375.47,430.705h-18.054c-4.142,0-7.5,3.358-7.5,7.5c0,4.142,3.358,7.5,7.5,7.5h18.054c4.142,0,7.5-3.358,7.5-7.5
			C382.97,434.063,379.612,430.705,375.47,430.705z"/>
	</g>
</g>
<g>
	<g>
		<path d="M375.47,459.371h-170.5c-4.142,0-7.5,3.358-7.5,7.5c0,4.142,3.358,7.5,7.5,7.5h170.5c4.142,0,7.5-3.358,7.5-7.5
			C382.97,462.729,379.612,459.371,375.47,459.371z"/>
	</g>
</g>
<g>
	<g>
		<path d="M408.785,64.927h-24.862c-6.893,0-12.5,5.608-12.5,12.5v24.696c0,6.893,5.607,12.5,12.5,12.5h4.2v25.24h-10.122
			c-4.142,0-7.5,3.358-7.5,7.5c0,4.142,3.358,7.5,7.5,7.5h12.622c6.892,0,12.5-5.607,12.5-12.5v-27.74h5.662
			c6.893,0,12.5-5.607,12.5-12.5V77.427C421.285,70.535,415.678,64.927,408.785,64.927z M406.285,99.623h-19.862V79.927h19.862
			V99.623z"/>
	</g>
</g>
<g>
</g>
<g>
</g>
<g>
</g>
<g>
</g>
<g>
</g>
<g>
</g>
<g>
</g>
<g>
</g>
<g>
</g>
<g>
</g>
<g>
</g>
<g>
</g>
<g>
</g>
<g>
</g>
<g>
</g>
</svg>
