<svg version="1.1" viewBox="0.0 0.0 405.0524934383202 257.7296587926509" fill="none" stroke="none" stroke-linecap="square" stroke-miterlimit="10" xmlns:xlink="http://www.w3.org/1999/xlink" xmlns="http://www.w3.org/2000/svg"><clipPath id="p.0"><path d="m0 0l405.0525 0l0 257.72964l-405.0525 0l0 -257.72964z" clip-rule="nonzero"/></clipPath><g clip-path="url(#p.0)"><path fill="#000000" fill-opacity="0.0" d="m0 0l405.0525 0l0 257.72964l-405.0525 0z" fill-rule="evenodd"/><path fill="#000000" fill-opacity="0.0" d="m115.9755 164.37338l-93.19685 -7.968506l75.05512 -55.842514z" fill-rule="evenodd"/><path stroke="#000000" stroke-width="4.0" stroke-linejoin="round" stroke-linecap="butt" d="m115.9755 164.37338l-93.19685 -7.968506l75.05512 -55.842514z" fill-rule="evenodd"/><path fill="#000000" fill-opacity="0.0" d="m140.54297 55.829395l40.031494 40.031498l-80.06299 0z" fill-rule="evenodd"/><path stroke="#000000" stroke-width="4.0" stroke-linejoin="round" stroke-linecap="butt" d="m140.54297 55.829395l40.031494 40.031498l-80.06299 0z" fill-rule="evenodd"/><path fill="#000000" fill-opacity="0.0" d="m97.83377 100.56236l2.6771622 -4.692917" fill-rule="evenodd"/><path stroke="#000000" stroke-width="4.0" stroke-linejoin="round" stroke-linecap="butt" d="m97.83377 100.56236l2.6771622 -4.692917" fill-rule="evenodd"/><path fill="#000000" fill-opacity="0.0" d="m115.9755 164.37338l24.566933 -68.50394" fill-rule="evenodd"/><path stroke="#000000" stroke-width="4.0" stroke-linejoin="round" stroke-linecap="butt" d="m115.9755 164.37338l24.566933 -68.50394" fill-rule="evenodd"/><path fill="#000000" fill-opacity="0.0" d="m140.54297 55.829395l76.85039 -0.4724388" fill-rule="evenodd"/><path stroke="#000000" stroke-width="4.0" stroke-linejoin="round" stroke-linecap="butt" d="m140.54297 55.829395l76.85039 -0.4724388" fill-rule="evenodd"/><path fill="#000000" fill-opacity="0.0" d="m180.57446 95.86089l38.519684 -38.83465" fill-rule="evenodd"/><path stroke="#000000" stroke-width="4.0" stroke-linejoin="round" stroke-linecap="butt" d="m180.57446 95.86089l38.519684 -38.83465" fill-rule="evenodd"/><path fill="#000000" fill-opacity="0.0" d="m140.54297 55.829395l37.984253 -22.456692" fill-rule="evenodd"/><path stroke="#000000" stroke-width="4.0" stroke-linejoin="round" stroke-linecap="butt" d="m140.54297 55.829395l37.984253 -22.456692" fill-rule="evenodd"/><path fill="#000000" fill-opacity="0.0" d="m178.52057 35.062992l42.23622 21.133858" fill-rule="evenodd"/><path stroke="#000000" stroke-width="4.0" stroke-linejoin="round" stroke-linecap="butt" d="m178.52057 35.062992l42.23622 21.133858" fill-rule="evenodd"/><path fill="#000000" fill-opacity="0.0" d="m176.83028 33.372704l28.724411 -5.921261" fill-rule="evenodd"/><path stroke="#000000" stroke-width="4.0" stroke-linejoin="round" stroke-linecap="butt" d="m176.83028 33.372704l28.724411 -5.921261" fill-rule="evenodd"/><path fill="#000000" fill-opacity="0.0" d="m206.4077 25.766405l15.212601 29.5748" fill-rule="evenodd"/><path stroke="#000000" stroke-width="4.0" stroke-linejoin="round" stroke-linecap="butt" d="m206.4077 25.766405l15.212601 29.5748" fill-rule="evenodd"/><path fill="#000000" fill-opacity="0.0" d="m205.56256 27.456694l59.118103 -3.5590553" fill-rule="evenodd"/><path stroke="#000000" stroke-width="4.0" stroke-linejoin="round" stroke-linecap="butt" d="m205.56256 27.456694l59.118103 -3.5590553" fill-rule="evenodd"/><path fill="#000000" fill-opacity="0.0" d="m263.02713 23.23097l58.299194 33.795273" fill-rule="evenodd"/><path stroke="#000000" stroke-width="4.0" stroke-linejoin="round" stroke-linecap="butt" d="m263.02713 23.23097l58.299194 33.795273" fill-rule="evenodd"/><path fill="#000000" fill-opacity="0.0" d="m320.4917 56.188976l69.29132 131.84251" fill-rule="evenodd"/><path stroke="#000000" stroke-width="4.0" stroke-linejoin="round" stroke-linecap="butt" d="m320.4917 56.188976l69.29132 131.84251" fill-rule="evenodd"/><path fill="#000000" fill-opacity="0.0" d="m115.9755 164.37338l117.48031 -0.03149414" fill-rule="evenodd"/><path stroke="#000000" stroke-width="4.0" stroke-linejoin="round" stroke-linecap="butt" d="m115.9755 164.37338l117.48031 -0.03149414" fill-rule="evenodd"/><path fill="#000000" fill-opacity="0.0" d="m233.45636 161.81364l-92.91339 -65.95275" fill-rule="evenodd"/><path stroke="#000000" stroke-width="4.0" stroke-linejoin="round" stroke-linecap="butt" d="m233.45636 161.81364l-92.91339 -65.95275" fill-rule="evenodd"/><path fill="#000000" fill-opacity="0.0" d="m180.57446 95.86089l53.732285 65.13386" fill-rule="evenodd"/><path stroke="#000000" stroke-width="4.0" stroke-linejoin="round" stroke-linecap="butt" d="m180.57446 95.86089l53.732285 65.13386" fill-rule="evenodd"/><path fill="#000000" fill-opacity="0.0" d="m221.12599 53.54331l14.015747 110.80315" fill-rule="evenodd"/><path stroke="#000000" stroke-width="4.0" stroke-linejoin="round" stroke-linecap="butt" d="m221.12599 53.54331l14.015747 110.80315" fill-rule="evenodd"/><path fill="#000000" fill-opacity="0.0" d="m115.9755 164.37338l56.62992 70.110245" fill-rule="evenodd"/><path stroke="#000000" stroke-width="4.0" stroke-linejoin="round" stroke-linecap="butt" d="m115.9755 164.37338l56.62992 70.110245" fill-rule="evenodd"/><path fill="#000000" fill-opacity="0.0" d="m172.60455 234.49869l59.149612 -67.62204" fill-rule="evenodd"/><path stroke="#000000" stroke-width="4.0" stroke-linejoin="round" stroke-linecap="butt" d="m172.60455 234.49869l59.149612 -67.62204" fill-rule="evenodd"/><path fill="#000000" fill-opacity="0.0" d="m231.75941 165.2021l75.2126 10.992126" fill-rule="evenodd"/><path stroke="#000000" stroke-width="4.0" stroke-linejoin="round" stroke-linecap="butt" d="m231.75941 165.2021l75.2126 10.992126" fill-rule="evenodd"/><path fill="#000000" fill-opacity="0.0" d="m207.25285 197.31496l98.866135 -20.283463" fill-rule="evenodd"/><path stroke="#000000" stroke-width="4.0" stroke-linejoin="round" stroke-linecap="butt" d="m207.25285 197.31496l98.866135 -20.283463" fill-rule="evenodd"/><path fill="#000000" fill-opacity="0.0" d="m306.12686 177.03412l84.50394 10.141739" fill-rule="evenodd"/><path stroke="#000000" stroke-width="4.0" stroke-linejoin="round" stroke-linecap="butt" d="m306.12686 177.03412l84.50394 10.141739" fill-rule="evenodd"/><path fill="#000000" fill-opacity="0.0" d="m221.61768 53.65354l42.26773 -28.724407" fill-rule="evenodd"/><path stroke="#000000" stroke-width="4.0" stroke-linejoin="round" stroke-linecap="butt" d="m221.61768 53.65354l42.26773 -28.724407" fill-rule="evenodd"/><path fill="#000000" fill-opacity="0.0" d="m223.30797 56.188976l98.01573 2.5196838" fill-rule="evenodd"/><path stroke="#000000" stroke-width="4.0" stroke-linejoin="round" stroke-linecap="butt" d="m223.30797 56.188976l98.01573 2.5196838" fill-rule="evenodd"/><path fill="#000000" fill-opacity="0.0" d="m222.33595 56.56693l100.69292 120.47244" fill-rule="evenodd"/><path stroke="#000000" stroke-width="4.0" stroke-linejoin="round" stroke-linecap="butt" d="m222.33595 56.56693l100.69292 120.47244" fill-rule="evenodd"/><path fill="#000000" fill-opacity="0.0" d="m325.56256 176.18898l36.346466 -41.417328" fill-rule="evenodd"/><path stroke="#000000" stroke-width="4.0" stroke-linejoin="round" stroke-linecap="butt" d="m325.56256 176.18898l36.346466 -41.417328" fill-rule="evenodd"/><path fill="#000000" fill-opacity="0.0" d="m361.90115 133.08923l-136.91339 -76.913376" fill-rule="evenodd"/><path stroke="#000000" stroke-width="4.0" stroke-linejoin="round" stroke-linecap="butt" d="m361.90115 133.08923l-136.91339 -76.913376" fill-rule="evenodd"/></g></svg>